<?xml version="1.0" encoding="utf-8" ?>
<svg xmlns="http://www.w3.org/2000/svg" width="570" height="570" viewBox="227.4 -163.5 570.8 570.8">
<path fill="#6BB1DC" d="M263.073 137.806C298.012 102.484 342.427 85.6927 391.699 85.0947C455.696 84.318 512.104 115.846 570.923 136.62C637.562 160.156 718.577 163.935 778.211 120.193C746.336 156.773 698.155 179.013 650.003 182.279C621.615 184.061 593.139 180.665 565.964 172.258C527.653 160.309 492.83 139.843 455.755 124.663C389.73 97.6311 323.974 94.4169 264.873 138.572L263.073 137.806Z" id="path3"></path><path fill="#5783C1" d="M270.47 109.793C278.744 97.9433 300.997 80.894 313.26 73.337C380.648 31.8093 455.928 34.6567 530.043 53.8703C564.398 62.7766 598.685 74.3129 632.775 82.1941C633.69 85.5535 634.567 85.8222 637.648 87.7451C635.459 91.7494 633.553 95.2885 631.96 99.5992C633.216 102.561 635.369 107.244 636.331 110.163C634.721 111.634 632.763 113.226 631.667 115.071C628.761 114.811 624.085 113.927 621.07 113.458C616.866 112.718 612.541 111.811 608.339 110.99C587.236 106.037 563.554 99.4501 543.091 92.1432C451.574 59.4639 350.646 37.9338 270.47 109.793Z" id="path4" style="fill:#536dae;fill-opacity:1"></path><path fill="#536DAE" d="M608.339 110.99C610.621 110.147 612.187 106.986 616.259 108.163C618.419 108.786 620.536 111.288 621.07 113.458C616.866 112.718 612.541 111.811 608.339 110.99Z" id="path5"></path><path fill="#80D4DF" d="M348.55 129.151C420.829 125.453 464.64 164.995 526.76 191.728C544.337 199.293 564.579 202.009 583.415 204.612C540.152 212.013 512.867 206.85 473.14 189.782C444.106 177.439 416.582 161.254 386.076 152.175C347.803 140.784 306.188 141.446 269.9 159.085C265.735 161.109 261.444 163.288 257.607 165.891C254.086 168.278 251.204 170.705 247.408 172.768C250.656 169.232 258.059 163.622 262.075 160.62C287.889 141.319 316.318 130.666 348.55 129.151Z" id="path7"></path><path fill="#536DAE" d="m 630.775,82.1941 c 15.224,3.2848 30.776,6.4147 46.274,8.026 49.71,5.1685 102.125,-3.6962 144.567,-31.0967 1.512,-0.9778 3.016,-1.9689 4.511,-2.9731 -8.129,8.274 -16.028,15.8244 -25.545,22.5204 -50.163,35.2923 -111.222,45.1773 -170.915,36.4003 1.096,-1.845 3.054,-3.437 4.664,-4.908 -0.962,-2.919 -3.115,-7.602 -4.371,-10.5638 1.593,-4.3107 3.499,-7.8498 5.688,-11.8541 -3.081,-1.9229 -3.958,-2.1916 -4.873,-5.551 z" id="path9"></path><path fill="#6BB1DC" fill-opacity="0.92941177" d="M251.113 150.123C254.841 145.936 259.104 141.797 263.073 137.806L264.873 138.572C260.202 142.141 256.234 146.524 251.113 150.123Z" id="path43"></path>
</svg>