<?xml version="1.0" encoding="UTF-8" standalone="no"?>
<svg width="985" height="471" viewBox="0 0 985 471" version="1.1" id="svg45" xmlns="http://www.w3.org/2000/svg" xmlns:svg="http://www.w3.org/2000/svg">
  <defs id="defs45"></defs>
  <path fill="#161F64" d="M826.098 203.212C829.32 202.864 833.408 203.327 836.6 203.696C828.283 208.474 822.2 214.03 817.274 222.33C803.995 244.707 774.082 322.576 780.592 346.983C781.249 349.448 782.528 351.932 784.824 353.227C787.51 354.742 791.13 354.332 793.978 353.559C800.471 351.797 809.584 345.33 811.567 338.669C813.046 333.702 813.139 328.277 814.609 323.215C815.9 318.771 818.316 314.323 820.625 310.331C828.057 297.48 839.8 285.672 854.521 281.768C865.526 278.849 874.468 281.271 884.061 286.884C887.303 279.675 896.744 281.316 903.416 281.474C896.524 299.536 884.978 328.435 889.28 347.127C893.748 366.541 920.989 349.818 927.384 340.451C928.329 339.068 935.698 330.48 936.439 330.248C937.113 330.627 938.843 331.682 938.754 332.479C937.953 337.109 932.66 342.419 929.561 345.987C917.964 359.342 893.319 373.248 876.947 360.079C870.964 355.266 870.159 344.157 870.014 336.625C859.418 356.532 830.162 378.698 813.637 351.331L812.286 346.796C804.285 355.057 791.975 365.738 779.436 364.388C760.041 362.3 760.539 344.307 762.095 329.638C753.89 342.464 741.742 359.951 726.044 363.488C711.502 366.766 704.621 358.41 701.849 345.45C693.932 357.946 671.864 368.812 657.707 361.578C650.295 357.791 649.741 343.755 651.345 336.757C654.345 323.674 659.754 295.948 666.754 285.194C672.92 281.46 679.947 281.426 686.928 281.109C679.516 301.45 672.956 322.605 669.401 343.98C668.593 348.837 671.655 354.247 676.957 354.036C685.692 353.687 695.957 346.275 700.835 339.289C702.915 335.54 702.923 329.872 704.194 325.986C711.429 303.867 731.808 279.729 756.846 279.464C763.667 279.392 768.009 282.327 772.526 286.962C777.673 265.421 790.756 233.529 803.78 215.388C809.125 207.942 817.065 204.311 826.098 203.212ZM847.06 352.024C870.368 337.567 871.872 314.548 881.815 292.73C876.683 288.144 873.965 286.371 866.695 286.746C830.255 298.169 821.088 363.997 847.06 352.024ZM734.362 351.315C754.959 338.671 764.055 315.237 770.401 293.01C765.623 288.817 762.762 287.316 756.148 287.737L755.939 287.751C723.123 299.616 708.985 361.87 733.661 351.616C733.896 351.519 734.13 351.418 734.362 351.315Z" id="path1"></path>
  <path fill="#161F64" d="M214.527 192.531C219.67 192.118 223.471 192.234 228.619 192.349C218.395 226.293 210.156 270.087 210.711 305.506C219.12 303.22 227.634 300.417 234.803 295.183C241.927 289.981 251.671 278.729 261.314 280.273C273.691 282.255 269.609 299.586 267.397 307.786C265.826 313.609 264.006 319.511 262.688 325.464C270.819 310.02 286.652 272.209 309.432 279.096C313.253 280.252 316.725 284.796 315.97 288.969C315.098 293.792 312.165 296.048 308.534 298.849C294.921 287.444 285.535 298.973 277.464 309.913C265.324 326.368 259.904 343.271 255.626 362.928C249.049 361.891 244.191 360.142 238.303 357.169C238.966 343.482 246.308 323.202 249.664 309.622C251.839 300.827 252.558 296.119 253.817 287.096C236.729 299.71 234.122 306.779 211.097 312.7C211.111 314.176 211.181 315.651 211.307 317.122C213.988 352.361 230.887 383.443 270.495 374.428C273.393 373.768 278.241 371.392 280.493 371.216C278.948 374.091 263.688 378.819 259.973 379.681C256.794 380.462 253.015 380.948 249.743 381.142C235.06 382.105 220.605 377.13 209.622 367.334C193.664 352.953 190.716 334.843 189.693 314.731C170.048 313.971 154.661 312.053 135.235 308.337C122.742 328.476 86.4866 381.416 54.5504 365.81C49.2597 363.225 47.1695 356.04 45.9159 350.511C46.9856 351.721 48.2203 353.183 49.3833 354.277C62.3425 366.47 81.1943 353.784 91.3532 344.373C103.43 333.184 113.935 320.163 123.857 307.193C109.386 305.287 83.1168 303.392 71.9369 315.946C68.1831 320.161 68.6879 326.248 69.3278 331.547C61.2522 316.185 64.3385 304.565 81.6732 298.813C97.6746 293.504 113.951 295.856 130.26 297.891C146.909 272.745 162.614 247.069 180.742 222.882C186.91 214.652 194.271 204.128 202.126 197.405C205.44 194.569 210.349 193.473 214.527 192.531ZM140.782 299.553C143.27 299.885 146.042 300.196 148.494 300.597C161.65 302.93 176.251 305.703 189.486 306.757C189.849 279.536 193.419 252.452 200.124 226.068C200.796 223.482 204.829 209.957 204.108 208.201C189.578 224.655 176.508 245.402 164.404 263.728C156.672 275.435 147.896 287.612 140.782 299.553Z" id="path2"></path>
  <path fill="#161F64" d="M263.073 137.806C298.012 102.484 342.427 85.6927 391.699 85.0947C455.696 84.318 512.104 115.846 570.923 136.62C637.562 160.156 718.577 163.935 778.211 120.193C746.336 156.773 698.155 179.013 650.003 182.279C621.615 184.061 593.139 180.665 565.964 172.258C527.653 160.309 492.83 139.843 455.755 124.663C389.73 97.6311 323.974 94.4169 264.873 138.572L263.073 137.806Z" id="path3"></path>
  <path fill="#161F64" d="M270.47 109.793C278.744 97.9433 300.997 80.894 313.26 73.337C380.648 31.8093 455.928 34.6567 530.043 53.8703C564.398 62.7766 598.685 74.3129 632.775 82.1941C633.69 85.5535 634.567 85.8222 637.648 87.7451C635.459 91.7494 633.553 95.2885 631.96 99.5992C633.216 102.561 635.369 107.244 636.331 110.163C634.721 111.634 632.763 113.226 631.667 115.071C628.761 114.811 624.085 113.927 621.07 113.458C616.866 112.718 612.541 111.811 608.339 110.99C587.236 106.037 563.554 99.4501 543.091 92.1432C451.574 59.4639 350.646 37.9338 270.47 109.793Z" id="path4" style="fill:#536dae;fill-opacity:1"></path>
  <path fill="#161F64" d="M608.339 110.99C610.621 110.147 612.187 106.986 616.259 108.163C618.419 108.786 620.536 111.288 621.07 113.458C616.866 112.718 612.541 111.811 608.339 110.99Z" id="path5"></path>
  <path fill="#161F64" d="M446.681 276.345C447.823 276.27 448.968 276.234 450.114 276.239C460.204 276.336 473.832 280.259 474.729 292.307C474.99 295.816 470.033 297.766 467.243 297.419C462.12 296.782 464.742 288.037 461.121 284.773C459.025 282.313 456.734 281.929 453.64 281.499C447.138 280.596 434.016 284.416 434.373 292.582C434.855 303.624 450.724 312.088 457.171 320.111C461.813 325.888 465.281 330.723 464.671 338.74C462.5 366.324 417.066 372.715 401.053 354.331C398.007 350.834 396.314 346.697 396.665 342.047C381.116 356.919 365.192 367.091 342.68 363.598C322.258 360.429 309.646 343.358 313.485 322.873C316.485 306.868 325.041 295.202 338.294 285.845C345.211 281.469 352.926 278.506 360.994 277.126C380.231 273.959 401.523 285.792 387.147 307.058C377.165 321.826 350.213 327.107 333.091 329.479C334.278 366.504 368.606 357.703 388.994 342.106C393.072 338.986 401.962 324.382 407.734 326.007C409.19 328.651 403.093 333.739 403.859 340.073C405.857 356.578 432.456 364.777 442.008 351.007C455.603 330.648 417.061 319.284 416.07 300.562C415.122 282.631 432.453 277.777 446.681 276.345ZM332.923 325.484C335.924 324.487 339.388 323.431 342.314 322.339C354.635 317.714 368.092 312.21 373.895 299.411C377.856 290.675 376.208 281.829 364.78 283.472C345.154 290.336 337.204 306.235 332.923 325.484Z" id="path6"></path>
  <path fill="#161F64" d="M348.55 129.151C420.829 125.453 464.64 164.995 526.76 191.728C544.337 199.293 564.579 202.009 583.415 204.612C540.152 212.013 512.867 206.85 473.14 189.782C444.106 177.439 416.582 161.254 386.076 152.175C347.803 140.784 306.188 141.446 269.9 159.085C265.735 161.109 261.444 163.288 257.607 165.891C254.086 168.278 251.204 170.705 247.408 172.768C250.656 169.232 258.059 163.622 262.075 160.62C287.889 141.319 316.318 130.666 348.55 129.151Z" id="path7"></path>
  <path fill="#161F64" d="M638.227 213.687C641.432 213.525 643.488 213.604 646.647 214.604C651.664 216.188 655.829 219.731 658.198 224.429C674.524 256.303 623.18 320.605 601.649 342.439C589.881 354.372 556.621 388.019 552.98 350.719C549.819 318.327 557.568 284.334 548.397 252.894C545.831 244.096 538.405 239.155 530.211 236.269C525.196 234.618 518.388 235.004 513.25 235.424C528.381 229.101 544.142 225.151 558.254 236.137C563.601 240.299 568.303 247.067 570.271 253.546C579.896 285.237 570.423 320.007 574.246 352.161C592.022 340.99 611.412 318.361 623.339 300.771C635.001 283.57 650.617 255.695 646.789 234.584C645.065 225.074 639.873 222.042 632.601 217.112C634.601 215.596 636.046 214.859 638.227 213.687Z" id="path8"></path>
  <path fill="#161F64" d="m 630.775,82.1941 c 15.224,3.2848 30.776,6.4147 46.274,8.026 49.71,5.1685 102.125,-3.6962 144.567,-31.0967 1.512,-0.9778 3.016,-1.9689 4.511,-2.9731 -8.129,8.274 -16.028,15.8244 -25.545,22.5204 -50.163,35.2923 -111.222,45.1773 -170.915,36.4003 1.096,-1.845 3.054,-3.437 4.664,-4.908 -0.962,-2.919 -3.115,-7.602 -4.371,-10.5638 1.593,-4.3107 3.499,-7.8498 5.688,-11.8541 -3.081,-1.9229 -3.958,-2.1916 -4.873,-5.551 z" id="path9"></path>
  <path fill="#161F64" d="M691.951 414.464C696.285 413.384 700.863 414.748 703.9 418.024C706.936 421.301 707.951 425.97 706.547 430.211C705.143 434.452 701.544 437.594 697.153 438.411C690.64 439.622 684.344 435.437 682.937 428.962C681.531 422.486 685.523 416.065 691.951 414.464ZM697.143 435.583C700.445 434.79 703.065 432.282 704.002 429.017C704.939 425.752 704.048 422.236 701.669 419.812C699.291 417.388 695.793 416.431 692.512 417.307C687.528 418.638 684.54 423.73 685.807 428.732C687.075 433.734 692.127 436.788 697.143 435.583Z" id="path10"></path>
  <path fill="#161F64" d="M473.787 414.455C478.104 413.44 482.633 414.843 485.621 418.12C488.61 421.398 489.591 426.037 488.185 430.244C486.779 434.452 483.207 437.568 478.849 438.39C472.314 439.621 465.993 435.406 464.617 428.898C463.241 422.391 467.314 415.976 473.787 414.455ZM478.728 435.619C483.741 434.422 486.877 429.434 485.784 424.395C484.691 419.357 479.771 416.117 474.712 417.106C471.345 417.763 468.597 420.191 467.528 423.452C466.459 426.713 467.236 430.297 469.56 432.822C471.884 435.347 475.391 436.417 478.728 435.619Z" id="path11"></path>
  <path fill="#161F64" d="M863.229 414.197C869.056 414.22 874.418 413.754 879.357 417.527C885.811 422.458 884.432 429.299 879.923 435.032C875.288 438.841 868.689 438.419 862.938 438.484C862.887 430.387 862.984 422.29 863.229 414.197ZM865.805 435.962C870.44 435.865 873.548 436.095 877.573 433.536C886.45 422.411 876.678 417.112 865.856 416.681C866.105 423.202 865.635 429.576 865.805 435.962Z" id="path12"></path>
  <path fill="#161F64" d="M685.914 247.393C701.314 246.323 699.626 260.431 686.293 266.515C670.56 267.359 672.434 252.946 685.914 247.393Z" id="path13"></path>
  <path fill="#161F64" d="M497.363 414.22C504.046 414.182 518.576 412.848 515.691 424.237C515.106 426.547 512.41 427.949 510.472 428.971C512.037 431.021 515.73 435.313 515.777 437.732L515.194 438.251L513.394 437.985C511.266 435.26 509.239 432.325 507.234 429.498C504.86 429.522 502.583 429.386 500.217 429.263C500.281 431.74 501.105 437.481 498.577 438.351L497.75 437.844C496.761 434.336 497.291 418.79 497.363 414.22ZM500.193 427.223C505.127 427.231 506.838 427.456 511.475 425.575C516.883 416.512 506.616 416.653 500.404 416.675C500.286 420.048 500.065 423.892 500.193 427.223Z" id="path14"></path>
  <path fill="#161F64" d="M387.217 414.221C391.716 414.177 403.073 413.375 405.329 418.601C407.644 423.964 404.653 426.762 400.122 429.119C401.809 431.067 405.717 435.301 405.585 437.786L404.802 438.331L403.107 437.993L396.998 429.24L390.081 429.291C390.075 431.35 390.524 437.001 388.87 438.197L387.995 437.57C386.111 432.766 386.972 419.827 387.217 414.221ZM390.08 427.114C394.923 427.249 397.232 427.56 401.78 425.669C406.923 416.23 396.16 417.117 390.054 417.044L390.08 427.114Z" id="path15"></path>
  <path fill="#161F64" d="M131.818 414.222C138.311 414.177 152.154 412.692 150.376 423.174C149.849 426.281 147.494 427.672 145.082 429.317C146.458 431.13 150.38 435.935 149.911 438.116C148.838 438.656 149.242 438.515 147.713 438.036L141.825 429.591L134.666 429.563C134.778 433.081 135.013 435.196 133.69 438.526L133.066 438.487C130.979 434.486 131.748 419.539 131.818 414.222ZM134.688 427.056C139.002 427.249 142.656 427.781 146.507 425.509C150.96 416.084 141.129 416.988 134.639 416.661C134.649 420.053 134.591 423.686 134.688 427.056Z" id="path16"></path>
  <path fill="#161F64" d="M269.956 414.27C276.955 414.15 291.061 412.776 288.287 424.119C287.693 426.547 284.809 428.024 282.804 429.132C283.752 430.328 284.69 431.532 285.62 432.742C286.765 434.236 288.6 436.281 288.346 438.173C287.05 438.685 287.391 438.513 285.776 438.021L280.305 429.507C277.884 429.572 275.289 429.392 272.857 429.275C272.942 432.857 273.153 435.373 271.236 438.58L270.685 438.273C269.016 433.064 269.787 420.183 269.956 414.27ZM272.764 427.17C277.253 427.322 280.436 427.751 284.445 425.442C289.325 416.358 278.74 417.06 272.715 416.719L272.764 427.17Z" id="path17"></path>
  <path fill="#161F64" d="M632.063 414.212C639.212 414.201 652.938 412.601 650.448 424.06C649.929 426.447 647.098 428.04 645.192 429.143C646.659 431.132 650.163 435.423 650.171 437.764L649.615 438.302L647.894 438.036L641.908 429.545L634.846 429.5C634.904 431.546 635.34 436.909 633.494 438.059C631.359 435.397 632.028 418.657 632.063 414.212ZM634.888 426.855C638.728 427.288 642.939 427.749 646.428 425.563C651.458 416.317 641.028 416.929 634.844 416.65L634.888 426.855Z" id="path18"></path>
  <path fill="#161F64" d="M189.077 414.339C193.943 414.166 201.356 413.476 204.856 417.041C210.707 423.001 205.185 429.382 198.141 429.669L191.846 429.747C192.038 434.029 192.144 434.448 190.693 438.46L189.663 438.402L190.571 438.663L189.555 438.112C187.876 432.393 188.817 420.746 189.077 414.339ZM191.787 427.736C195.806 427.451 198.247 427.395 202.073 425.931C209.679 418.29 196.685 416.855 191.707 416.864C191.345 420.068 191.652 424.42 191.787 427.736Z" id="path19"></path>
  <path fill="#161F64" d="M348.133 414.262C352.511 414.204 359.045 413.77 362.745 416.149C370.638 421.223 365.857 428.129 358.433 429.562C356.112 429.69 353.652 429.661 351.317 429.675C351.355 433.398 351.525 435.169 349.754 438.554L349.186 438.497C347.269 434.581 348.04 419.446 348.133 414.262ZM351.103 427.611C355.342 427.621 357.804 427.7 361.811 425.973C366.202 416.331 357.741 417.043 350.797 416.815L351.103 427.611Z" id="path20"></path>
  <path fill="#161F64" d="M580.067 414.128C585.805 414.137 589.531 413.878 595.047 415.589C601.024 421.602 598.83 427.709 590.712 429.571L582.941 429.627C583.001 433.889 583.25 434.518 581.666 438.505C581.547 438.406 580.939 438.05 580.765 437.943C579.645 432.476 580.027 420.252 580.067 414.128ZM593.943 425.994C598.039 416.641 589.666 417.248 582.976 416.593C582.969 420.147 582.915 423.813 582.982 427.357C587.384 427.389 589.71 427.525 593.943 425.994Z" id="path21"></path>
  <path fill="#161F64" d="M900.553 413.922C904.338 415.02 911.405 433.79 911.182 437.699L910.569 437.752C909.008 436.193 908.35 434.326 907.463 432.314L900.231 432.353L894.775 432.418C893.634 435.231 893.38 436.788 890.703 438.205L890.131 437.875C889.845 433.883 898.025 417.555 900.553 413.922ZM895.765 429.598L902.877 429.672L905.84 429.577C906.002 427.9 902.022 419.861 900.785 418.457C899.113 422.035 897.182 425.946 895.765 429.598Z" id="path22"></path>
  <path fill="#161F64" d="M169.439 413.953C172.043 415.316 180.903 435.035 179.996 437.861C177.824 436.732 176.998 434.611 176.247 432.43C173.796 432.388 171.239 432.422 168.778 432.422L163.29 432.418C162.098 434.767 161.338 437.625 158.652 438.177L158.276 437.447C159.127 432.283 166.077 418.033 169.439 413.953ZM164.258 429.812L171.341 429.746L173.937 429.757L174.366 429.253C173.708 427.535 170.41 418.807 169.487 417.936C167.969 421.323 165.47 426.459 164.258 429.812Z" id="path23"></path>
  <path fill="#161F64" d="M547.296 413.688C550.871 415.19 558.803 433.968 558.2 437.973L557.573 437.988C555.713 436.228 555.211 434.539 554.254 432.195L547.57 432.248L541.558 432.254C540.612 434.616 539.8 437.655 537.161 438.135L536.691 437.511C537.476 432.744 544.759 418.377 547.296 413.688ZM542.475 429.699L547.69 429.684C548.717 429.675 552.233 429.792 552.897 429.371C552.185 427.034 549.363 420.027 547.687 418.362L542.475 429.699Z" id="path24"></path>
  <path fill="#161F64" d="M236.904 413.886C240.45 415.408 249.322 435.317 247.729 438.526C245.938 437.809 244.599 434.104 243.878 432.365L238.916 432.259L231.317 432.247C230.497 434.259 229.178 438.458 226.789 438.06C225.807 434.697 234.84 417.769 236.904 413.886ZM232.438 429.628L237.779 429.74C239.131 429.681 240.888 429.836 241.845 429.165C241.828 426.628 239.22 420.101 237.512 418.393C235.875 422.004 233.947 426.005 232.438 429.628Z" id="path25"></path>
  <path fill="#161F64" d="M418.109 432.161C417.793 434.316 416.755 437.916 414.312 438.283C413.116 435.966 415.318 432.513 416.27 430.288C424.903 410.111 425.418 410.925 433.36 430.212C434.26 432.268 436.185 435.762 435.317 437.909C433.224 437.691 432.073 434.295 431.254 432.492C428.362 432.457 420.614 432.544 418.109 432.161ZM419.566 429.237C421.588 430.175 426.845 429.554 429.614 429.947C429.154 426.138 426.618 421.267 424.89 417.889C423.671 420.962 421.349 426.715 419.566 429.237Z" id="path26"></path>
  <path fill="#161F64" d="M843.504 413.903C846.89 414.963 854.915 434.114 854.408 438.162L853.631 438.155C851.591 436.123 851.208 434.977 850.058 432.403L844.44 432.482L837.92 432.49C836.706 435.597 836.348 436.509 833.773 438.565L833.181 438.44C833.115 433.851 841.009 418.988 843.504 413.903ZM839.095 429.725L843.628 429.728L848.483 429.565L848.757 429.165C848.089 427.064 845.365 419.558 844.147 418.345C842.363 422.093 840.679 425.888 839.095 429.725Z" id="path27"></path>
  <path fill="#161F64" d="M747.545 432.512C746.898 434.789 746.623 437.047 744.209 438.012L743.709 437.493C743.683 433.383 750.147 420.594 752.394 416.446C752.948 415.423 753.845 415.211 754.845 415.066C757.603 416.383 762.959 430.117 764.507 433.582L761.848 434.003L761.179 432.843C759.094 432.013 750.381 432.437 747.545 432.512ZM749.169 429.566L754.02 429.693L759.01 429.557L759.298 429.181C758.588 426.756 755.88 420.107 754.298 418.369C752.663 422.004 750.95 426.034 749.169 429.566Z" id="path28"></path>
  <path fill="#161F64" d="M733.051 413.947L734.053 414.571C735.747 416.901 734.915 436.141 734.847 440.542C728.844 434.147 723.331 426.168 718.132 419.005C718.508 424.756 718.25 430.707 718.111 436.481C717.927 437.883 718.184 437.379 717.121 438.362L716.194 438.263C714.214 435.441 715.283 417.623 715.977 413.554C721.034 417.67 728.614 427.612 732.053 433.239C732.18 429.003 732.236 417.411 733.051 413.947Z" id="path29"></path>
  <path fill="#161F64" d="M106.124 414.3C109.139 414.235 121.383 413.421 122.766 415.993C119.913 417.665 112.214 417.14 108.678 417.047L108.687 424.907C111.267 424.901 117.872 424.616 119.613 426.346C117.801 427.946 111.751 427.542 109.084 427.528C108.386 428.569 108.691 434.21 108.701 435.927C111.456 435.827 121.513 434.882 123.111 437.031L122.74 437.621C119.658 439.029 109.599 438.462 105.807 438.396C105.641 430.641 105.272 421.962 106.124 414.3Z" id="path30"></path>
  <path fill="#161F64" d="M297.87 414.326C302.331 414.225 310.643 413.673 314.579 415.604L314.585 416.218C311.046 417.627 304.518 417.216 300.552 417.098L300.584 424.804C303.472 424.78 309.052 424.422 311.381 426.122L311.048 426.733C307.876 427.775 304.125 427.517 300.77 427.413C300.559 429.332 300.584 433.688 300.536 435.776C302.878 435.738 312.692 435.277 314.156 436.815C312.242 439.203 300.912 438.44 297.696 438.335C298.018 430.331 297.914 422.335 297.87 414.326Z" id="path31"></path>
  <path fill="#161F64" d="M606.018 414.275C609.311 414.216 619.996 413.755 622.126 415.8C620.036 417.378 611.697 417.158 608.756 417.18L608.92 424.791C611.6 424.776 617.824 424.46 619.774 426.135C618.216 427.926 611.482 427.561 609.01 427.561L608.933 435.804C614.909 435.424 616.414 435.176 622.242 436.332L622.723 437.272L623.536 436.9L623.285 437.233C618.842 438.763 610.975 438.384 606.066 438.373L606.018 414.275Z" id="path32"></path>
  <path fill="#161F64" d="M808.522 414.462C814.145 414.008 822.075 414.281 827.77 414.357C822.925 421.767 816.798 428.951 811.14 435.769C815.575 435.398 824.191 434.501 827.306 437.675C824.838 438.886 810.371 438.331 806.973 438.285C808.993 434.143 819.129 421.693 822.582 417.134C819.415 417.127 810.34 417.646 808.244 415.568L808.522 414.462Z" id="path33"></path>
  <path fill="#161F64" d="M663.704 414.286C666.991 414.102 673.153 413.809 674.418 417.402C672.544 418.385 667.023 416.347 663.05 417.817C661.74 419.214 662.081 418.541 661.679 420.342C663.519 425.431 682.925 427.485 673.497 436.58C672.195 437.836 669.119 438.423 667.369 438.645C664.632 438.403 660.746 437.657 658.76 435.65C658.432 434.418 658.356 434.873 658.906 433.92C663.471 433.519 668.769 439.743 672.6 433.2C672.813 426.643 647.205 424.492 663.704 414.286Z" id="path34"></path>
  <path fill="#161F64" d="M327.976 414.246C331.808 414.219 335.747 413.986 338.28 417.367L338.106 418.073C336.228 418.356 331.779 417.044 329.491 416.638C327.921 417.279 327.181 417.47 326.059 418.748C325.06 424.868 353.067 430.512 333.412 438.587C330.17 438.481 323.491 438.238 322.339 434.655C323.784 432.459 329.147 436.994 333.224 435.981C334.656 435.611 335.889 434.701 336.666 433.442C336.312 426.346 311.002 424.263 327.976 414.246Z" id="path35"></path>
  <path fill="#161F64" d="M438.813 414.352C442.673 414.258 455.418 413.446 458.109 415.73L457.489 416.405C454.653 417.147 453.354 417.049 450.459 417.034C450.366 421.631 450.35 426.23 450.411 430.828C450.518 433.2 451.027 437.152 448.937 438.735L449.099 438.846L449.592 438.105L448.638 438.382C446.837 433.242 447.463 422.941 447.659 417.068C443.683 417.009 440.491 418.619 438.813 414.352Z" id="path36"></path>
  <path fill="#161F64" d="M80.4285 414.503C87.1124 413.938 94.5094 413.851 101.01 415.547C96.8127 416.985 94.3613 416.923 89.9663 417.12L89.9636 431.431C89.9821 433.721 90.6026 437.035 88.7764 438.355L87.8576 438.164C86.5432 435.43 87.1838 421.264 87.0735 416.935C84.8031 417.147 80.7396 417.74 79.1322 415.81L79.2439 415.025L80.4285 414.503Z" id="path37"></path>
  <path fill="#161F64" d="M773.655 413.864C774.682 414.035 774.723 414.074 775.629 414.615C777.018 417.476 776.347 431.445 776.292 435.738C780.596 435.659 787.339 434.188 789.892 438.127C784.987 438.642 778.476 438.464 773.439 438.469C773.251 431.311 773.233 420.876 773.655 413.864Z" id="path38"></path>
  <path fill="#161F64" d="M796.729 413.862C797.745 414.088 797.694 414.083 798.542 414.702C800.48 418.618 799.444 433.752 799.255 438.694C798.162 438.513 798.049 438.444 797.217 437.709C795.645 433.966 796.43 418.522 796.729 413.862Z" id="path39"></path>
  <path fill="#161F64" d="M374.443 413.866C375.477 414.033 375.516 414.068 376.427 414.61C377.798 417.601 377.221 435.2 377.047 439.488C376.031 438.96 375.821 438.777 374.928 438.046C373.375 434.419 374.247 418.681 374.443 413.866Z" id="path40"></path>
  <path fill="#161F64" d="M525.48 413.863C528.324 414.524 528.187 417.414 528.207 419.936C528.259 426.317 528.054 432.739 527.909 439.121C526.823 438.761 526.687 438.651 525.791 437.932C524.347 434.298 525.171 418.443 525.48 413.863Z" id="path41"></path>
  <path fill="#161F64" d="M215.457 413.726C216.185 413.963 216.521 414.21 217.16 414.604C218.621 417.713 217.918 434.972 217.816 439.481C216.674 438.933 216.528 438.851 215.696 437.9C214.177 433.916 214.978 418.444 215.457 413.726Z" id="path42"></path>
  <path fill="#161F64" fill-opacity="0.92941177" d="M251.113 150.123C254.841 145.936 259.104 141.797 263.073 137.806L264.873 138.572C260.202 142.141 256.234 146.524 251.113 150.123Z" id="path43"></path>
  <path fill="#161F64" d="M764.507 433.582C765.012 435.656 765.398 435.846 764.909 437.649L764.062 437.829C762.876 436.9 762.162 435.455 761.848 434.003L764.507 433.582Z" id="path44"></path>
  <path d="M480.642 407.371L481.328 408.029C480.601 409.67 478.416 411.223 476.97 412.431C476.4 412.004 476.656 412.258 476.366 411.486C477.122 409.903 479.206 408.508 480.642 407.371Z" id="path45"></path>
</svg>