<?xml version="1.0" encoding="UTF-8" standalone="no"?>
<svg width="985" height="471" viewBox="0 0 985 471" version="1.1" id="svg45" xmlns="http://www.w3.org/2000/svg" xmlns:svg="http://www.w3.org/2000/svg">
  <defs id="defs45"></defs>
  <path id="path1" d="M 446.65039 40.636719 C 400.57845 38.761595 355.37727 47.383078 313.25977 73.337891 C 300.99677 80.894891 278.7447 97.943269 270.4707 109.79297 C 350.6467 37.933769 451.5748 59.463278 543.0918 92.142578 C 563.5548 99.449478 587.23684 106.03723 608.33984 110.99023 C 612.54184 111.81123 616.86631 112.71703 621.07031 113.45703 C 623.49983 113.83496 627.00746 114.4842 629.79883 114.85742 C 629.75359 114.92853 629.71066 114.99845 629.66797 115.07031 C 689.36097 123.84731 750.41903 113.96222 800.58203 78.669922 C 810.09903 71.973922 817.99795 64.424391 826.12695 56.150391 C 824.63195 57.154591 823.12723 58.145247 821.61523 59.123047 C 779.17323 86.523547 726.75883 95.389203 677.04883 90.220703 C 662.27299 88.684485 647.4492 85.767494 632.90625 82.652344 C 632.86274 82.50629 632.81883 82.352836 632.77539 82.193359 C 598.68539 74.312159 564.39797 62.777394 530.04297 53.871094 C 502.24984 46.665994 474.29356 41.761793 446.65039 40.636719 z M 391.69922 85.09375 C 342.42722 85.69175 298.01127 102.48464 263.07227 137.80664 C 259.10327 141.79764 254.84128 145.93605 251.11328 150.12305 C 256.23428 146.52405 260.20205 142.14127 264.87305 138.57227 C 323.97405 94.417166 389.73086 97.630209 455.75586 124.66211 C 492.83086 139.84211 527.65384 160.30881 565.96484 172.25781 C 593.13984 180.66481 621.61591 184.0613 650.00391 182.2793 C 698.15591 179.0133 746.33594 156.77336 778.21094 120.19336 C 718.57694 163.93536 637.56283 160.15514 570.92383 136.61914 C 512.10483 115.84514 455.69622 84.31705 391.69922 85.09375 z M 348.55078 129.15039 C 316.31878 130.66539 287.88822 141.31814 262.07422 160.61914 C 258.05822 163.62114 250.6562 169.23158 247.4082 172.76758 C 251.2042 170.70458 254.08642 168.27763 257.60742 165.89062 C 261.44442 163.28763 265.73539 161.10994 269.90039 159.08594 C 306.18839 141.44694 347.80317 140.78478 386.07617 152.17578 C 416.58217 161.25478 444.10663 177.43825 473.14062 189.78125 C 512.86762 206.84925 540.15106 212.01233 583.41406 204.61133 C 564.57806 202.00833 544.33677 199.29352 526.75977 191.72852 C 464.63977 164.99552 420.82978 125.45239 348.55078 129.15039 z M 228.61914 192.34961 C 223.47114 192.23461 219.67034 192.11825 214.52734 192.53125 C 210.34934 193.47325 205.44095 194.5683 202.12695 197.4043 C 194.27195 204.1273 186.91019 214.65281 180.74219 222.88281 C 162.61419 247.06981 146.90877 272.74463 130.25977 297.89062 C 113.95077 295.85562 97.675228 293.5035 81.673828 298.8125 C 64.339128 304.5645 61.252525 316.18487 69.328125 331.54688 C 68.688225 326.24787 68.1837 320.16031 71.9375 315.94531 C 83.1174 303.39131 109.38642 305.28736 123.85742 307.19336 C 113.93542 320.16336 103.43032 333.18405 91.353516 344.37305 C 81.194616 353.78405 62.342013 366.47034 49.382812 354.27734 C 48.219812 353.18334 46.985716 351.72172 45.916016 350.51172 C 47.169616 356.04072 49.260081 363.22555 54.550781 365.81055 C 86.486981 381.41655 122.74137 328.47689 135.23438 308.33789 C 154.66038 312.05389 170.04836 313.97047 189.69336 314.73047 C 190.71636 334.84247 193.66309 352.95298 209.62109 367.33398 C 220.60409 377.12998 235.05919 382.10558 249.74219 381.14258 C 253.01419 380.94858 256.79366 380.46264 259.97266 379.68164 C 263.68766 378.81964 278.94719 374.0918 280.49219 371.2168 C 278.24019 371.3928 273.39214 373.76773 270.49414 374.42773 C 230.88614 383.44273 213.98764 352.36009 211.30664 317.12109 C 211.18064 315.65009 211.11166 314.17522 211.09766 312.69922 C 234.12266 306.77822 236.72841 299.7097 253.81641 287.0957 C 252.55741 296.1187 251.83906 300.82609 249.66406 309.62109 C 246.30806 323.20109 238.96573 343.48292 238.30273 357.16992 C 244.19073 360.14292 249.04995 361.89073 255.62695 362.92773 C 259.90495 343.27073 265.32484 326.36711 277.46484 309.91211 C 285.53584 298.97211 294.9202 287.44461 308.5332 298.84961 C 312.1642 296.04861 315.0987 293.79175 315.9707 288.96875 C 316.7257 284.79575 313.25264 280.2517 309.43164 279.0957 C 286.65164 272.2087 270.8185 310.02084 262.6875 325.46484 C 264.0055 319.51184 265.82548 313.60816 267.39648 307.78516 C 269.60848 299.58516 273.69145 282.25544 261.31445 280.27344 C 251.67145 278.72944 241.92673 289.98159 234.80273 295.18359 C 227.63373 300.41759 219.11994 303.21986 210.71094 305.50586 C 210.15594 270.08686 218.39514 226.29361 228.61914 192.34961 z M 828.64844 203.08984 C 827.76222 203.08961 826.90316 203.12589 826.09766 203.21289 C 817.06466 204.31189 809.1243 207.94267 803.7793 215.38867 C 790.7553 233.52967 777.67239 265.42189 772.52539 286.96289 C 768.00839 282.32789 763.6667 279.39284 756.8457 279.46484 C 731.8077 279.72984 711.42836 303.86733 704.19336 325.98633 C 702.92236 329.87233 702.91594 335.54006 700.83594 339.28906 C 695.95794 346.27506 685.69203 353.68616 676.95703 354.03516 C 671.65503 354.24616 668.59239 348.83747 669.40039 343.98047 C 672.95539 322.60547 679.51573 301.45038 686.92773 281.10938 C 679.94673 281.42638 672.91991 281.45936 666.75391 285.19336 C 659.75391 295.94736 654.3457 323.67481 651.3457 336.75781 C 649.7417 343.75581 650.29503 357.79113 657.70703 361.57812 C 671.86403 368.81212 693.93261 357.94522 701.84961 345.44922 C 704.62161 358.40922 711.50292 366.76628 726.04492 363.48828 C 741.74292 359.95128 753.8907 342.46467 762.0957 329.63867 C 760.5397 344.30767 760.04055 362.30067 779.43555 364.38867 C 791.97455 365.73867 804.28416 355.05788 812.28516 346.79688 L 813.63672 351.33008 C 830.16172 378.69708 859.41767 356.532 870.01367 336.625 C 870.15867 344.157 870.96427 355.26513 876.94727 360.07812 C 893.31927 373.24712 917.96355 359.34133 929.56055 345.98633 C 932.65955 342.41833 937.95291 337.10852 938.75391 332.47852 C 938.84291 331.68152 937.11345 330.62705 936.43945 330.24805 C 935.69845 330.48005 928.32977 339.06817 927.38477 340.45117 C 920.98977 349.81817 893.7473 366.54095 889.2793 347.12695 C 884.9773 328.43495 896.52402 299.53661 903.41602 281.47461 C 896.74402 281.31661 887.30255 279.67577 884.06055 286.88477 C 874.46755 281.27177 865.52648 278.84858 854.52148 281.76758 C 839.80048 285.67158 828.057 297.47908 820.625 310.33008 C 818.316 314.32208 815.90037 318.77084 814.60938 323.21484 C 813.13937 328.27684 813.04541 333.70292 811.56641 338.66992 C 809.58341 345.33092 800.47152 351.79659 793.97852 353.55859 C 791.13052 354.33159 787.51022 354.74156 784.82422 353.22656 C 782.52822 351.93156 781.2488 349.44742 780.5918 346.98242 C 774.0818 322.57542 803.99444 244.70708 817.27344 222.33008 C 822.19944 214.03008 828.28261 208.47331 836.59961 203.69531 C 834.20561 203.41856 831.30709 203.09055 828.64844 203.08984 z M 204.10742 208.20117 C 204.82842 209.95717 200.79505 223.48236 200.12305 226.06836 C 193.41805 252.45236 189.84933 279.53681 189.48633 306.75781 C 176.25133 305.70381 161.65014 302.93066 148.49414 300.59766 C 146.04214 300.19666 143.26925 299.88473 140.78125 299.55273 C 147.89525 287.61173 156.6723 275.43552 164.4043 263.72852 C 176.5083 245.40252 189.57742 224.65517 204.10742 208.20117 z M 640.45117 213.62109 C 639.75836 213.62084 639.02781 213.647 638.22656 213.6875 C 636.04556 214.8595 634.60156 215.59533 632.60156 217.11133 C 639.87356 222.04133 645.06506 225.07398 646.78906 234.58398 C 650.61706 255.69498 635.00184 283.57048 623.33984 300.77148 C 611.41284 318.36148 592.02209 340.98916 574.24609 352.16016 C 570.42309 320.00616 579.89648 285.23788 570.27148 253.54688 C 568.30348 247.06788 563.60091 240.29872 558.25391 236.13672 C 544.14191 225.15072 528.381 229.10083 513.25 235.42383 C 518.388 235.00383 525.19594 234.61853 530.21094 236.26953 C 538.40494 239.15553 545.83048 244.09653 548.39648 252.89453 C 557.56748 284.33453 549.81947 318.32675 552.98047 350.71875 C 556.62147 388.01875 589.88044 354.37245 601.64844 342.43945 C 623.17944 320.60545 674.52327 256.30369 658.19727 224.42969 C 655.82827 219.73169 651.66348 216.18752 646.64648 214.60352 C 644.27723 213.85352 642.52961 213.62184 640.45117 213.62109 z M 688.60352 247.36523 C 687.77319 247.3192 686.87656 247.3257 685.91406 247.39258 C 672.43406 252.94558 670.55997 267.35962 686.29297 266.51562 C 698.79266 260.81188 701.05845 248.05581 688.60352 247.36523 z M 450.11328 276.23828 C 448.96728 276.23328 447.82364 276.2707 446.68164 276.3457 C 432.45364 277.7777 415.12231 282.6315 416.07031 300.5625 C 417.06131 319.2845 455.60281 330.64881 442.00781 351.00781 C 432.45581 364.77781 405.85738 356.57727 403.85938 340.07227 C 403.09338 333.73827 409.19038 328.65181 407.73438 326.00781 C 401.96238 324.38281 393.07214 338.98547 388.99414 342.10547 C 368.60614 357.70247 334.2788 366.50352 333.0918 329.47852 C 350.2138 327.10652 377.16448 321.82659 387.14648 307.05859 C 401.52248 285.79259 380.23114 273.95995 360.99414 277.12695 C 352.92614 278.50695 345.21192 281.4697 338.29492 285.8457 C 325.04192 295.2027 316.48438 306.86805 313.48438 322.87305 C 309.64537 343.35805 322.25769 360.42866 342.67969 363.59766 C 365.19169 367.09066 381.11506 356.91887 396.66406 342.04688 C 396.31306 346.69688 398.00673 350.83308 401.05273 354.33008 C 417.06573 372.71408 462.50088 366.32423 464.67188 338.74023 C 465.28188 330.72323 461.81387 325.88833 457.17188 320.11133 C 450.72487 312.08833 434.85505 303.62403 434.37305 292.58203 C 434.01605 284.41603 447.13862 280.59505 453.64062 281.49805 C 456.73462 281.92805 459.02509 282.31344 461.12109 284.77344 C 464.74209 288.03744 462.11919 296.78292 467.24219 297.41992 C 470.03219 297.76692 474.98952 295.81564 474.72852 292.30664 C 473.83152 280.25864 460.20328 276.33528 450.11328 276.23828 z M 366.80859 283.28516 C 376.39152 282.93521 377.60797 291.22016 373.89453 299.41016 C 368.09153 312.20916 354.63545 317.71484 342.31445 322.33984 C 339.38845 323.43184 335.92483 324.48738 332.92383 325.48438 C 337.20483 306.23537 345.1533 290.33666 364.7793 283.47266 C 365.49355 283.36997 366.16973 283.30849 366.80859 283.28516 z M 869.2207 286.70703 C 874.68144 286.85787 877.32395 288.71772 881.81445 292.73047 C 871.87145 314.54847 870.36855 337.56644 847.06055 352.02344 C 821.08855 363.99644 830.25531 298.16909 866.69531 286.74609 C 867.60406 286.69922 868.4406 286.68548 869.2207 286.70703 z M 758.46289 287.66992 C 763.50669 287.73251 766.21964 289.34089 770.40039 293.00977 C 764.05439 315.23677 754.95833 338.67045 734.36133 351.31445 C 734.12933 351.41745 733.89516 351.51823 733.66016 351.61523 C 708.98416 361.86923 723.12345 299.61695 755.93945 287.75195 L 756.14844 287.73633 C 756.97519 287.6837 757.74235 287.66098 758.46289 287.66992 z M 480.64258 407.37109 C 479.20658 408.50809 477.12123 409.90333 476.36523 411.48633 C 476.65523 412.25833 476.4007 412.00464 476.9707 412.43164 C 478.4167 411.22364 480.60113 409.6703 481.32812 408.0293 L 480.64258 407.37109 z M 715.97656 413.55469 C 715.28256 417.62369 714.21336 435.44167 716.19336 438.26367 L 717.12109 438.36133 C 718.18409 437.37833 717.92733 437.88247 718.11133 436.48047 C 718.25033 430.70647 718.50881 424.75686 718.13281 419.00586 C 723.33181 426.16886 728.84466 434.14797 734.84766 440.54297 C 734.91566 436.14197 735.74673 416.90031 734.05273 414.57031 L 733.05078 413.94727 C 732.23578 417.41127 732.17973 429.00228 732.05273 433.23828 C 728.61373 427.61128 721.03356 417.67069 715.97656 413.55469 z M 547.29688 413.6875 C 544.75987 418.3765 537.47641 432.74472 536.69141 437.51172 L 537.16016 438.13477 C 539.79916 437.65477 540.61259 434.61591 541.55859 432.25391 L 547.57031 432.24805 L 554.25391 432.19531 C 555.21091 434.53931 555.71227 436.22828 557.57227 437.98828 L 558.19922 437.97266 C 558.80222 433.96766 550.87187 415.1895 547.29688 413.6875 z M 215.45703 413.72656 C 214.97803 418.44456 214.17631 433.91639 215.69531 437.90039 C 216.52731 438.85139 216.67441 438.93247 217.81641 439.48047 C 217.91841 434.97147 218.62116 417.71252 217.16016 414.60352 C 216.52116 414.20952 216.18503 413.96356 215.45703 413.72656 z M 796.72852 413.86133 C 796.42952 418.52133 795.6448 433.96598 797.2168 437.70898 C 798.0488 438.44398 798.16286 438.51236 799.25586 438.69336 C 799.44486 433.75136 800.48097 418.61717 798.54297 414.70117 C 797.69497 414.08217 797.74452 414.08733 796.72852 413.86133 z M 525.48047 413.86328 C 525.17147 418.44328 524.34702 434.29764 525.79102 437.93164 C 526.68702 438.65064 526.8222 438.76109 527.9082 439.12109 C 528.0532 432.73909 528.25903 426.31655 528.20703 419.93555 C 528.18703 417.41355 528.32447 414.52428 525.48047 413.86328 z M 773.6543 413.86328 C 773.2323 420.87528 773.25145 431.31075 773.43945 438.46875 C 778.47645 438.46375 784.98758 438.64195 789.89258 438.12695 C 787.33958 434.18795 780.59697 435.65928 776.29297 435.73828 C 776.34797 431.44528 777.01791 417.47623 775.62891 414.61523 C 774.72291 414.07423 774.6813 414.03428 773.6543 413.86328 z M 374.44336 413.86523 C 374.24736 418.68023 373.37473 434.41987 374.92773 438.04688 C 375.82073 438.77787 376.03087 438.96028 377.04688 439.48828 C 377.22087 435.20028 377.79873 417.60037 376.42773 414.60938 C 375.51673 414.06738 375.47736 414.03223 374.44336 413.86523 z M 236.9043 413.88672 C 234.8403 417.76972 225.80706 434.69755 226.78906 438.06055 C 229.17806 438.45855 230.49641 434.25809 231.31641 432.24609 L 238.91602 432.25977 L 243.87891 432.36523 C 244.59991 434.10423 245.93752 437.80839 247.72852 438.52539 C 249.32152 435.31639 240.4503 415.40872 236.9043 413.88672 z M 843.50391 413.90234 C 841.00891 418.98734 833.11564 433.85045 833.18164 438.43945 L 833.77344 438.56445 C 836.34844 436.50845 836.70592 435.59723 837.91992 432.49023 L 844.43945 432.48242 L 850.05859 432.40234 C 851.20859 434.97634 851.59086 436.1223 853.63086 438.1543 L 854.4082 438.16211 C 854.9152 434.11411 846.88991 414.96234 843.50391 413.90234 z M 900.55273 413.92188 C 898.02473 417.55487 889.84486 433.883 890.13086 437.875 L 890.70312 438.20508 C 893.38012 436.78808 893.63439 435.23097 894.77539 432.41797 L 900.23047 432.35352 L 907.46289 432.31445 C 908.34989 434.32645 909.00736 436.19295 910.56836 437.75195 L 911.18164 437.69922 C 911.40464 433.79022 904.33773 415.01987 900.55273 413.92188 z M 169.43945 413.95312 C 166.07745 418.03312 159.12639 432.28327 158.27539 437.44727 L 158.65234 438.17773 C 161.33834 437.62573 162.09706 434.76697 163.28906 432.41797 L 168.77734 432.42188 C 171.23834 432.42187 173.79509 432.38769 176.24609 432.42969 C 176.99709 434.61069 177.82409 436.73233 179.99609 437.86133 C 180.90309 435.03533 172.04345 415.31612 169.43945 413.95312 z M 695.21875 414.10352 C 694.13264 414.07633 693.03467 414.19484 691.95117 414.46484 C 685.52317 416.06584 681.5315 422.48689 682.9375 428.96289 C 684.3445 435.43789 690.63934 439.62116 697.15234 438.41016 C 701.54334 437.59316 705.14288 434.45194 706.54688 430.21094 C 707.95087 425.96994 706.93639 421.30044 703.90039 418.02344 C 701.62264 415.56644 698.47708 414.18508 695.21875 414.10352 z M 137.70703 414.12695 C 135.52395 414.10872 133.44161 414.21141 131.81836 414.22266 C 131.74836 419.53966 130.97941 434.48533 133.06641 438.48633 L 133.68945 438.52539 C 135.01245 435.19539 134.77802 433.0805 134.66602 429.5625 L 141.82422 429.5918 L 147.71289 438.03516 C 149.24189 438.51416 148.83716 438.65523 149.91016 438.11523 C 150.37916 435.93423 146.45803 431.12941 145.08203 429.31641 C 147.49403 427.67141 149.84995 426.28083 150.37695 423.17383 C 151.71045 415.31233 144.25627 414.18166 137.70703 414.12695 z M 580.06641 414.12891 C 580.02641 420.25291 579.64562 432.47636 580.76562 437.94336 C 580.93962 438.05036 581.54702 438.40686 581.66602 438.50586 C 583.25002 434.51886 583.00141 433.88895 582.94141 429.62695 L 590.71289 429.57031 C 598.83089 427.70831 601.02387 421.60284 595.04688 415.58984 C 589.53087 413.87884 585.80441 414.13791 580.06641 414.12891 z M 638.30273 414.13477 C 636.0495 414.10727 633.84975 414.21014 632.0625 414.21289 C 632.0275 418.65789 631.35914 435.39659 633.49414 438.05859 C 635.34014 436.90859 634.9037 431.546 634.8457 429.5 L 641.9082 429.54492 L 647.89453 438.03516 L 649.61523 438.30273 L 650.17188 437.76367 C 650.16387 435.42267 646.65841 431.13158 645.19141 429.14258 C 647.09741 428.03958 649.92827 426.44755 650.44727 424.06055 C 652.31477 415.4663 645.06244 414.21727 638.30273 414.13477 z M 477.03711 414.13867 C 475.95875 414.09867 474.86636 414.20133 473.78711 414.45508 C 467.31411 415.97608 463.24119 422.39144 464.61719 428.89844 C 465.99319 435.40644 472.31461 439.62162 478.84961 438.39062 C 483.20761 437.56862 486.77955 434.45214 488.18555 430.24414 C 489.59155 426.03714 488.61009 421.39714 485.62109 418.11914 C 483.38009 415.66139 480.27219 414.25867 477.03711 414.13867 z M 448.89844 414.14844 C 444.89331 414.07769 440.7425 414.30456 438.8125 414.35156 C 440.4905 418.61856 443.6822 417.00936 447.6582 417.06836 C 447.4622 422.94136 446.83767 433.24281 448.63867 438.38281 L 449.54688 438.11914 C 450.91804 436.28591 450.50515 432.93395 450.41016 430.82812 C 450.34916 426.23012 450.36598 421.6302 450.45898 417.0332 C 453.35398 417.0482 454.65228 417.1463 457.48828 416.4043 L 458.10938 415.73047 C 456.76387 414.58847 452.90356 414.21919 448.89844 414.14844 z M 449.54688 438.11914 C 449.37356 438.35086 449.17203 438.55674 448.9375 438.73438 L 449.09961 438.8457 L 449.5918 438.10547 L 449.54688 438.11914 z M 391.62695 414.15234 C 389.89431 414.15206 388.34155 414.2097 387.2168 414.2207 C 386.9718 419.8267 386.11014 432.76631 387.99414 437.57031 L 388.86914 438.19727 C 390.52314 437.00127 390.07408 431.35002 390.08008 429.29102 L 396.99805 429.24023 L 403.10742 437.99219 L 404.80273 438.33008 L 405.58594 437.78516 C 405.71794 435.30016 401.80809 431.06714 400.12109 429.11914 C 404.65209 426.76214 407.64312 423.96456 405.32812 418.60156 C 403.63612 414.68206 396.82488 414.15319 391.62695 414.15234 z M 115.05664 414.1582 C 111.44589 414.04833 107.63055 414.26828 106.12305 414.30078 C 105.27105 421.96278 105.64064 430.64148 105.80664 438.39648 C 109.59864 438.46248 119.65823 439.02909 122.74023 437.62109 L 123.11133 437.03125 C 121.51333 434.88225 111.45617 435.82773 108.70117 435.92773 C 108.69117 434.21073 108.38598 428.56834 109.08398 427.52734 C 111.75098 427.54134 117.80128 427.9457 119.61328 426.3457 C 117.87228 424.6157 111.2675 424.90025 108.6875 424.90625 L 108.67773 417.04688 C 112.21373 417.13987 119.91262 417.66419 122.76562 415.99219 C 122.07412 414.70619 118.66739 414.26808 115.05664 414.1582 z M 276.16211 414.16406 C 273.89878 414.13252 271.70483 414.23953 269.95508 414.26953 C 269.78608 420.18253 269.01655 433.06444 270.68555 438.27344 L 271.23633 438.58008 C 273.15333 435.37308 272.94242 432.85739 272.85742 429.27539 C 275.28942 429.39239 277.88369 429.57281 280.30469 429.50781 L 285.77539 438.02148 C 287.39039 438.51348 287.0497 438.68583 288.3457 438.17383 C 288.5997 436.28183 286.76414 434.23619 285.61914 432.74219 C 284.68914 431.53219 283.75269 430.32881 282.80469 429.13281 C 284.80969 428.02481 287.69311 426.54714 288.28711 424.11914 C 290.36761 415.61189 282.95209 414.2587 276.16211 414.16406 z M 503.45117 414.16797 C 501.19427 414.12042 499.03403 414.2112 497.36328 414.2207 C 497.29128 418.7907 496.761 434.33575 497.75 437.84375 L 498.57617 438.35156 C 501.10417 437.48156 500.2808 431.74067 500.2168 429.26367 C 502.5828 429.38667 504.86038 429.52205 507.23438 429.49805 C 509.23937 432.32505 511.26653 435.25937 513.39453 437.98438 L 515.19336 438.25195 L 515.77734 437.73242 C 515.73034 435.31342 512.03766 431.0207 510.47266 428.9707 C 512.41066 427.9487 515.10641 426.54633 515.69141 424.23633 C 517.85516 415.69458 510.22189 414.31061 503.45117 414.16797 z M 90.787109 414.17773 C 87.289797 414.05811 83.769684 414.22141 80.427734 414.50391 L 79.244141 415.02539 L 79.132812 415.81055 C 80.740212 417.74055 84.803819 417.14755 87.074219 416.93555 C 87.184519 421.26455 86.543022 435.43006 87.857422 438.16406 L 88.777344 438.35547 C 90.603544 437.03547 89.981391 433.72164 89.962891 431.43164 L 89.966797 417.11914 C 94.361797 416.92214 96.812466 416.98487 101.00977 415.54688 C 97.759466 414.69888 94.284422 414.29736 90.787109 414.17773 z M 193.10352 414.1875 C 191.66958 414.22081 190.29267 414.29659 189.07617 414.33984 C 188.81617 420.74684 187.87569 432.39233 189.55469 438.11133 L 190.14062 438.42969 L 190.69336 438.46094 C 192.14436 434.44894 192.0377 434.02809 191.8457 429.74609 L 198.14062 429.66992 C 205.18462 429.38292 210.70647 423.00102 204.85547 417.04102 C 202.23047 414.36727 197.40533 414.08756 193.10352 414.1875 z M 190.14062 438.42969 L 189.66211 438.40234 L 190.57031 438.66211 L 190.14062 438.42969 z M 666.58594 414.18945 C 665.52625 414.18666 664.52488 414.23916 663.70312 414.28516 C 647.20412 424.49116 672.81261 426.64222 672.59961 433.19922 C 668.76861 439.74222 663.47125 433.51892 658.90625 433.91992 C 658.35625 434.87292 658.43177 434.41839 658.75977 435.65039 C 660.74577 437.65739 664.63214 438.40253 667.36914 438.64453 C 669.11914 438.42253 672.19409 437.83608 673.49609 436.58008 C 682.92409 427.48508 663.51969 425.4308 661.67969 420.3418 C 662.08169 418.5408 661.74078 419.21341 663.05078 417.81641 C 667.02378 416.34641 672.54397 418.38534 674.41797 417.40234 C 673.46922 414.70759 669.765 414.19784 666.58594 414.18945 z M 863.22852 414.19727 C 862.98352 422.29027 862.8865 430.38738 862.9375 438.48438 C 868.6885 438.41938 875.28883 438.84025 879.92383 435.03125 C 884.43283 429.29825 885.81142 422.45834 879.35742 417.52734 C 874.41842 413.75434 869.05552 414.22027 863.22852 414.19727 z M 306.42188 414.20312 C 303.29425 414.11237 300.09964 414.27567 297.86914 414.32617 C 297.91314 422.33517 298.01731 430.33194 297.69531 438.33594 C 300.91131 438.44094 312.24225 439.20245 314.15625 436.81445 C 312.69225 435.27645 302.87716 435.73739 300.53516 435.77539 C 300.58316 433.68739 300.55853 429.33111 300.76953 427.41211 C 304.12453 427.51611 307.87683 427.77442 311.04883 426.73242 L 311.38086 426.12109 C 309.05186 424.42109 303.47198 424.78069 300.58398 424.80469 L 300.55273 417.09766 C 304.51873 417.21566 311.04694 417.62775 314.58594 416.21875 L 314.57812 415.60352 C 312.61012 414.63802 309.5495 414.29388 306.42188 414.20312 z M 327.97656 414.24609 C 311.00256 424.26309 336.31202 426.34541 336.66602 433.44141 C 335.88902 434.70041 334.65661 435.61047 333.22461 435.98047 C 329.14761 436.99347 323.78484 432.4583 322.33984 434.6543 C 323.49184 438.2373 330.17011 438.48189 333.41211 438.58789 C 353.06711 430.51289 325.05959 424.86805 326.05859 418.74805 C 327.18059 417.47005 327.92023 417.27967 329.49023 416.63867 C 331.77823 417.04467 336.22747 418.35527 338.10547 418.07227 L 338.2793 417.36719 C 335.7463 413.98619 331.80856 414.21909 327.97656 414.24609 z M 614.50781 414.24805 C 611.15869 414.11505 607.66408 414.24589 606.01758 414.27539 L 606.06641 438.37305 C 610.97541 438.38405 618.84216 438.76242 623.28516 437.23242 L 623.53516 436.90039 L 622.72266 437.27148 L 622.24219 436.33203 C 616.41419 435.17603 614.90959 435.42469 608.93359 435.80469 L 609.00977 427.56055 C 611.48177 427.56055 618.21544 427.92577 619.77344 426.13477 C 617.82344 424.45977 611.59992 424.77602 608.91992 424.79102 L 608.75586 417.17969 C 611.69686 417.15769 620.03695 417.37878 622.12695 415.80078 C 621.06195 414.77828 617.85694 414.38105 614.50781 414.24805 z M 348.13281 414.26172 C 348.03981 419.44572 347.26855 434.58009 349.18555 438.49609 L 349.75391 438.55469 C 351.52491 435.16969 351.35441 433.39878 351.31641 429.67578 C 353.65141 429.66178 356.11259 429.6905 358.43359 429.5625 C 365.85759 428.1295 370.63714 421.22244 362.74414 416.14844 C 359.04414 413.76944 352.51081 414.20372 348.13281 414.26172 z M 827.76953 414.35742 C 822.07453 414.28142 814.14448 414.00889 808.52148 414.46289 L 808.24414 415.56836 C 810.34014 417.64636 819.41503 417.12777 822.58203 417.13477 C 819.12903 421.69377 808.99266 434.14316 806.97266 438.28516 C 810.37066 438.33116 824.83864 438.88678 827.30664 437.67578 C 824.19164 434.50178 815.57563 435.39853 811.14062 435.76953 C 816.79862 428.95153 822.92453 421.76742 827.76953 414.35742 z M 754.8457 415.06641 C 753.8457 415.21141 752.94853 415.42231 752.39453 416.44531 C 750.14753 420.59331 743.68298 433.38219 743.70898 437.49219 L 744.20898 438.01172 C 746.62298 437.04672 746.89792 434.78872 747.54492 432.51172 C 750.38092 432.43672 759.09469 432.01375 761.17969 432.84375 L 761.84766 434.00391 C 762.16166 435.45591 762.8765 436.89912 764.0625 437.82812 L 764.9082 437.64844 C 765.3972 435.84544 765.01281 435.65603 764.50781 433.58203 C 762.95981 430.11703 757.6037 416.38341 754.8457 415.06641 z M 425.07422 415.45117 C 422.87359 415.35892 420.58603 420.19861 416.26953 430.28711 C 415.31753 432.51211 413.1165 435.9662 414.3125 438.2832 C 416.7555 437.9162 417.79338 434.31516 418.10938 432.16016 C 420.61438 432.54316 428.36191 432.45719 431.25391 432.49219 C 432.07291 434.29519 433.22341 437.6902 435.31641 437.9082 C 436.18441 435.7612 434.25937 432.26889 433.35938 430.21289 C 429.38838 420.56939 427.27484 415.54342 425.07422 415.45117 z M 582.97656 416.59375 C 589.66656 417.24875 598.03936 416.64114 593.94336 425.99414 C 589.71036 427.52514 587.38442 427.38942 582.98242 427.35742 C 582.91542 423.81342 582.96956 420.14775 582.97656 416.59375 z M 634.84375 416.65039 C 641.02775 416.92939 651.45773 416.3165 646.42773 425.5625 C 642.93873 427.7485 638.72867 427.28847 634.88867 426.85547 L 634.84375 416.65039 z M 134.63867 416.66016 C 141.12867 416.98716 150.96081 416.08477 146.50781 425.50977 C 142.65681 427.78177 139.0015 427.24964 134.6875 427.05664 C 134.5905 423.68664 134.64867 420.05216 134.63867 416.66016 z M 500.4043 416.67578 C 506.6163 416.65378 516.88261 416.51122 511.47461 425.57422 C 506.83761 427.45522 505.12736 427.23066 500.19336 427.22266 C 500.06536 423.89166 500.2863 420.04878 500.4043 416.67578 z M 865.85547 416.68164 C 876.67747 417.11264 886.44927 422.41016 877.57227 433.53516 C 873.54727 436.09416 870.43969 435.86589 865.80469 435.96289 C 865.63469 429.57689 866.10447 423.20264 865.85547 416.68164 z M 272.71484 416.71875 C 278.73984 417.05975 289.32531 416.35741 284.44531 425.44141 C 280.43631 427.75041 277.25267 427.32192 272.76367 427.16992 L 272.71484 416.71875 z M 350.79688 416.81445 C 357.74087 417.04245 366.20155 416.33066 361.81055 425.97266 C 357.80355 427.69966 355.34252 427.62133 351.10352 427.61133 L 350.79688 416.81445 z M 191.70703 416.86328 C 196.68503 416.85428 209.67827 418.29064 202.07227 425.93164 C 198.24627 427.39564 195.80611 427.45133 191.78711 427.73633 C 191.65211 424.42033 191.34503 420.06728 191.70703 416.86328 z M 476.5957 416.92773 C 480.9415 416.95422 484.82683 419.98628 485.7832 424.39453 C 486.8762 429.43353 483.74152 434.42214 478.72852 435.61914 C 475.39152 436.41714 471.88455 435.34727 469.56055 432.82227 C 467.23655 430.29727 466.45834 426.71217 467.52734 423.45117 C 468.59634 420.19017 471.34589 417.76247 474.71289 417.10547 C 475.34527 416.98184 475.97487 416.92395 476.5957 416.92773 z M 694.99219 416.98828 C 697.47164 417.0015 699.88642 417.9945 701.66992 419.8125 C 704.04892 422.2365 704.93895 425.75258 704.00195 429.01758 C 703.06495 432.28258 700.44458 434.78903 697.14258 435.58203 C 692.12658 436.78703 687.07464 433.73442 685.80664 428.73242 C 684.53964 423.73042 687.52772 418.63764 692.51172 417.30664 C 693.33197 417.08764 694.1657 416.98387 694.99219 416.98828 z M 390.05469 417.04492 C 396.16069 417.11792 406.9223 416.23092 401.7793 425.66992 C 397.2313 427.56092 394.92308 427.24828 390.08008 427.11328 L 390.05469 417.04492 z M 424.89062 417.88867 C 426.61862 421.26667 429.15328 426.13827 429.61328 429.94727 C 426.84428 429.55427 421.58841 430.17433 419.56641 429.23633 C 421.34941 426.71433 423.67163 420.96167 424.89062 417.88867 z M 169.48633 417.93555 C 170.40933 418.80655 173.70723 427.53591 174.36523 429.25391 L 173.9375 429.75781 L 171.3418 429.74609 L 164.25781 429.8125 C 165.46981 426.4595 167.96833 421.32255 169.48633 417.93555 z M 844.14648 418.3457 C 845.36448 419.5587 848.08981 427.06306 848.75781 429.16406 L 848.48242 429.56445 L 843.62891 429.72852 L 839.0957 429.72461 C 840.6797 425.88761 842.36248 422.0937 844.14648 418.3457 z M 547.6875 418.36133 C 549.3635 420.02633 552.18448 427.03409 552.89648 429.37109 C 552.23248 429.79209 548.71645 429.67459 547.68945 429.68359 L 542.47461 429.69922 L 547.6875 418.36133 z M 754.29883 418.36914 C 755.88083 420.10714 758.58883 426.75664 759.29883 429.18164 L 759.00977 429.55664 L 754.01953 429.69336 L 749.16992 429.56641 C 750.95092 426.03441 752.66383 422.00414 754.29883 418.36914 z M 237.51172 418.39258 C 239.21972 420.10058 241.8287 426.62706 241.8457 429.16406 C 240.8887 429.83506 239.1313 429.68123 237.7793 429.74023 L 232.4375 429.62891 C 233.9465 426.00591 235.87472 422.00358 237.51172 418.39258 z M 900.78516 418.45703 C 902.02216 419.86103 906.00184 427.89917 905.83984 429.57617 L 902.87695 429.67188 L 895.76562 429.59766 C 897.18263 425.94566 899.11316 422.03503 900.78516 418.45703 z "></path>
</svg>